<?xml version="1.0" encoding="utf-8"?>
<!-- Generator: Adobe Illustrator 26.0.2, SVG Export Plug-In . SVG Version: 6.00 Build 0)  -->
<svg version="1.1" id="Calque_1" xmlns="http://www.w3.org/2000/svg" xmlns:xlink="http://www.w3.org/1999/xlink" x="0px" y="0px"
	 viewBox="0 0 229.3 199.4" style="enable-background:new 0 0 229.3 199.4;" xml:space="preserve">
<style type="text/css">
	.st0{fill:#EA5E1D;}
	.st1{fill:#FFFFFF;}
	.st2{fill:#323235;}
</style>
<path class="st0" d="M224,167.3c-18.2,0-26.1-4.5-31.5-11.4c10.8-12.8,17.4-28.7,18.8-45.4c1.5-16.6-1.6-34.1-9-50.6
	C184.9,20.4,147.7,0,107.7,0c-1.4,0-2.8,0-4.1,0.1h-2.1C76.4,0.1,51,7,29.8,28.6c-29.6,30.7-37.6,69.4-22,106
	c16.5,38.8,55.6,64.9,97.2,64.9c18,0,35.6-4.8,52.4-14.1l1.4,0.3c8.6,2,17.3,3,26.1,3.2c18,0,32.2-5.5,42.4-16.5l1.6-1.7
	c0.8-0.8,0.7-2.1-0.1-2.8c-0.4-0.3-0.9-0.5-1.4-0.5L224,167.3z"/>
<path class="st1" d="M44,59c-0.1-0.8,0.3-1.5,1.1-1.6c0,0,0.1,0,0.1,0l24.4-3.3c17.1-2.2,28.4,8.8,29.9,19.4
	c1,7.6,2.4,19.4-10.3,25.1v0.2c8.7,1.9,18.5,5,20.3,19.1c1.9,14.8-0.2,28.2-27.4,31.7l-24.4,3.2c-0.7,0.1-1.3-0.3-1.5-1
	c0-0.1,0-0.1,0-0.2L44,59z M72,90.4c0.1,0.5,0.5,0.8,1,0.8c0,0,0,0,0,0c2-0.1,3.5-1.9,3.4-3.9c0-0.1,0-0.2,0-0.3l-1.4-11
	c-0.4-1.9-2.3-3.2-4.2-2.8c-0.5,0-0.9,0.4-0.8,0.9L72,90.4z M77.2,130c0,0.5,0.4,0.8,0.9,0.8c0.1,0,0.1,0,0.2,0
	c0.8-0.1,2-0.7,3.1-2.9c2.4-5.6,1.2-12.1-3-16.6c-0.7-0.8-1.8-1.2-2.9-1c-0.5,0-0.7,0.5-0.7,1.1L77.2,130z"/>
<path class="st1" d="M117.8,144.3c-0.8,0.1-1.5-0.4-1.6-1.2c0-0.1,0-0.2,0-0.3l-6-92.7c-0.1-1,0.6-1.9,1.6-2c0,0,0.1,0,0.1,0
	l23.7-1.5c21-1.4,34.3,10.8,35.8,34.1l1.5,23.9c1.3,20.8-9.7,36.8-30.2,38.1L117.8,144.3z M144.2,75c0-1.1-0.5-2.2-1.4-2.9
	c-0.7-0.4-1.5-0.6-2.3-0.6c-0.5,0-0.8,0.4-0.7,1.2l2.8,42.6c0,0.8,0.3,1,0.9,1c0.8,0,3.4-0.2,3.2-3.9L144.2,75z"/>
</svg>
