<svg xmlns="http://www.w3.org/2000/svg" viewBox="0 0 282.19 53"><path d="M54.12,41.76H47.8V9.41h8c7,0,10.06,3.85,10.06,10.57s-3,10.58-10.06,10.58H54.12v11.2Zm1-16.33c3.49,0,4.52-1.49,4.52-5.39s-1-5.5-4.52-5.5h-1V25.43Zm18.49-16V41.76H67.58V9.41ZM90.9,36.68c0,.67.15,1,.77,1a2.43,2.43,0,0,0,.92-.21v3.7a5.3,5.3,0,0,1-3.18,1,3.92,3.92,0,0,1-4.06-2.93,4.91,4.91,0,0,1-4.73,2.93c-3.54,0-5.39-2.31-5.39-5.45,0-3.75,2.67-5.44,6.17-7.55L84.94,27v-.92c0-1.54-.21-2.77-1.65-2.77s-1.74,1.34-1.74,2.77v1.24H76V25.9c0-4.32,2.36-7.29,7.5-7.29s7.44,2.82,7.44,7.86V36.68Zm-6-5.4L83.4,32.41c-1.34.93-2.37,1.7-2.37,3.29a1.71,1.71,0,0,0,1.75,1.95c1.44,0,2.16-1.54,2.16-3.44V31.28Zm15.15,10.48H94V19h6.06v2.52A5.16,5.16,0,0,1,105,18.6c4.06,0,5.34,3,5.34,6V41.76H104.3V26.3c0-1.64-.56-2.57-1.89-2.57-1.65,0-2.32,1.65-2.32,3.75Zm12.17-11.91c0-6.73,2.36-11.25,8.27-11.25s8,4.42,8,11.15V31.8H118.33v.92c0,3,.51,4.78,2.3,4.78,1.55,0,2.16-1.23,2.16-3.54v-.52h5.55v.41c0,5.09-2.73,8.32-7.6,8.32-5.75,0-8.48-4-8.48-11.25V29.85Zm8.27-6.58c-1.69,0-2.2,1.8-2.2,4.93h4.31C122.64,25.07,122.23,23.27,120.53,23.27Zm10.54-.05h-1.9V19.57l.67-.1c2-.36,2.46-1.59,2.87-3.75l.57-2.72h3.64v6h3.7v4.21h-3.7v12c0,1.28.47,1.85,1.44,1.85a4.82,4.82,0,0,0,2.67-.82v4.21a7.86,7.86,0,0,1-4.93,1.59c-3,0-5-1.44-5-5.19V23.22Zm26.7,13.46c0,.67.16,1,.77,1a2.44,2.44,0,0,0,.93-.21v3.7a5.31,5.31,0,0,1-3.19,1,3.91,3.91,0,0,1-4.05-2.93,4.91,4.91,0,0,1-4.73,2.93c-3.54,0-5.39-2.31-5.39-5.45,0-3.75,2.67-5.44,6.16-7.55L151.82,27v-.92c0-1.54-.21-2.77-1.65-2.77s-1.74,1.34-1.74,2.77v1.24h-5.6V25.9c0-4.32,2.36-7.29,7.49-7.29s7.45,2.82,7.45,7.86V36.68Zm-6-5.4-1.54,1.13c-1.34.93-2.36,1.7-2.36,3.29a1.71,1.71,0,0,0,1.75,1.95c1.44,0,2.15-1.54,2.15-3.44V31.28ZM172.73,9.41h2.47V41.76h-2.47V39.19a4,4,0,0,1-3.91,3c-3.59,0-5.29-3.54-5.29-11v-1c0-7.49,1.7-11,5.29-11a4,4,0,0,1,3.91,3Zm0,18c0-3.91-1.23-6.37-3.29-6.37-2.51,0-3.38,2.93-3.38,8.78v1.65c0,5.85.87,8.78,3.38,8.78,2.06,0,3.29-2.47,3.29-6.37Zm5,2.78c0-7.45,1.8-11.1,5.7-11.1s5.35,3.39,5.35,10.78V31h-8.58v.61c0,5.65,1.08,8.52,3.34,8.52,2.1,0,3-2.15,3-6.62v-.41h2.16v.51c0,5.7-1.85,8.53-5.19,8.53-4.11,0-5.81-4-5.81-11v-1Zm5.7-9.1c-2.3,0-3.23,3.34-3.23,8.12h6.31C186.54,24.4,185.77,21.06,183.46,21.06ZM199,9.41V36.52h8.68v5.24h-15V9.41Zm10.48.46h6.06v6.36h-6.06ZM215.53,19V41.77h-6.06V19Zm8.52,2.57a4.89,4.89,0,0,1,4.62-3c4.47,0,6.06,4,6.06,10.38V31.8c0,6.37-1.59,10.38-6.06,10.38a4.9,4.9,0,0,1-4.62-3l-.51,2.57H218V9.41h6.06Zm0,11.6c0,2.42.61,3.86,2.26,3.86s2.21-1.49,2.21-4.42V28.15c0-3-.67-4.42-2.21-4.42s-2.26,1.44-2.26,3.85Zm24.6-8.31a7.62,7.62,0,0,0-2.52-.41c-2.62,0-3.28,1.85-3.28,4.56V41.76h-6.06V19h6.06v3.08a4.13,4.13,0,0,1,4.31-3.39,4.61,4.61,0,0,1,1.65.31Zm17.26,6.05c0,6.73-2.41,11.25-8.31,11.25s-8.38-4.52-8.38-11.25V29.84c0-6.72,2.42-11.24,8.38-11.24s8.31,4.52,8.31,11.24Zm-10.58,1.75c0,3.24.51,4.78,2.26,4.78s2.21-1.55,2.21-4.78V28.1c0-3.23-.51-4.77-2.21-4.77s-2.26,1.54-2.26,4.77Zm16.8,1.44v.72c0,1.75.82,2.83,2.41,2.83a1.69,1.69,0,0,0,1.85-1.9c0-1-.46-1.6-1.59-2.16l-2.72-1.24c-2.83-1.23-5-3.13-5-6.93s2.72-6.83,7.29-6.83c4.78,0,7.35,2.73,7.35,7v1H276.5v-.67c0-1.69-.36-2.82-2-2.82A1.65,1.65,0,0,0,272.8,25a2.34,2.34,0,0,0,1.43,2.16l3.08,1.44c2.73,1.28,4.88,3,4.88,6.78,0,4.31-3,6.83-7.55,6.83-4.77,0-7.7-2.57-7.7-7.14v-.92h5.19ZM23,39.45l7.51-.35L28.4,3.29l-24,2.16L2.71,4.53,25.05,1.68,24.42,0,.36,3.29,0,38l4,2.34,4.8-.22,1.5,4.93L7.2,53h6.35l-3.08-2.12,4.13-5.52L13,39.92l5.57-.26,1.71,4.24L16.59,53h6.34l-3.17-2.11,4.81-6.69Z" style="fill:#0f81e4"/></svg>
